<?xml version="1.0" standalone="no"?>
<!DOCTYPE svg PUBLIC "-//W3C//DTD SVG 20010904//EN"
 "http://www.w3.org/TR/2001/REC-SVG-20010904/DTD/svg10.dtd">
<svg version="1.0" xmlns="http://www.w3.org/2000/svg"
 width="4026.000000pt" height="4026.000000pt" viewBox="0 0 4026.000000 4026.000000"
 preserveAspectRatio="xMidYMid meet">

<g transform="translate(0.000000,4026.000000) scale(0.100000,-0.100000)"
fill="#000000" stroke="none">
<path d="M19830 38084 c-3945 -59 -7778 -1432 -10870 -3894 -817 -651 -1569
-1364 -2263 -2144 -1144 -1286 -2126 -2780 -2847 -4331 -934 -2007 -1488
-4161 -1634 -6355 -48 -709 -52 -1775 -10 -2302 l6 -78 17918 0 17918 0 6 93
c18 255 26 581 26 1052 0 523 -8 803 -35 1210 -8 121 -15 223 -15 228 0 4
-4023 7 -8940 7 l-8940 0 0 1480 0 1480 8695 0 c4782 0 8695 4 8695 8 0 4 -27
109 -60 232 -187 697 -410 1367 -682 2048 l-101 252 -8273 0 -8274 0 0 1480 0
1480 7481 2 7480 3 -137 200 c-568 830 -1129 1524 -1832 2268 l-215 227 -6389
0 -6388 0 0 1480 0 1480 4473 0 4472 0 -70 41 c-345 203 -1105 590 -1535 782
-2437 1088 -4985 1610 -7660 1571z m-7991 -3601 c23 -59 31 -123 31 -265 0
-144 -1 -148 -24 -163 -32 -21 -73 -5 -82 31 -11 42 3 294 19 351 23 82 37 93
56 46z m19 -535 c8 -8 12 -60 12 -167 0 -130 -3 -157 -17 -173 -21 -24 -48
-23 -73 2 -18 18 -20 33 -20 163 0 113 3 147 16 165 17 24 62 30 82 10z m-14
-516 c5 -19 41 -68 79 -110 82 -90 106 -138 107 -207 l0 -51 70 -11 c220 -34
412 -219 479 -463 27 -97 28 -221 2 -289 l-19 -50 32 -11 c138 -47 446 -310
446 -381 0 -17 -6 -32 -15 -35 -21 -8 -53 14 -173 120 -117 103 -209 167 -317
220 l-74 36 -648 0 -648 0 -67 -39 c-108 -63 -209 -144 -306 -246 -50 -52 -96
-95 -103 -95 -22 0 -49 32 -49 58 0 34 57 88 258 242 139 106 162 127 156 145
-16 47 -16 206 0 279 21 94 80 214 143 291 95 116 238 209 342 222 l49 6 7 45
c14 92 44 151 116 227 38 40 69 75 69 78 0 3 5 18 10 32 14 36 42 29 54 -13z
m768 -1729 l167 -138 0 -294 c1 -256 -1 -292 -14 -287 -8 3 -58 30 -111 61
l-96 55 -699 0 -699 0 -99 -44 c-55 -24 -109 -47 -120 -51 -21 -6 -21 -6 -21
297 l0 303 183 117 182 117 580 0 581 1 166 -137z m39 -716 c57 -34 118 -67
134 -72 23 -8 31 -17 33 -41 3 -26 -2 -32 -30 -44 -29 -13 -33 -19 -33 -55 0
-36 4 -42 35 -56 l35 -17 5 -392 5 -393 108 -60 107 -61 0 -190 0 -191 -34
-27 -34 -27 -266 129 -266 130 0 245 0 245 -45 0 -45 0 0 333 c0 350 -1 357
-45 357 -44 0 -45 -7 -45 -357 l0 -333 23 -4 c12 -3 31 -7 42 -8 19 -3 20 -12
23 -236 l2 -232 -490 0 -490 0 0 224 0 224 30 12 30 12 0 337 c0 249 -3 340
-12 349 -16 16 -53 15 -67 -1 -7 -9 -12 -124 -13 -358 l-3 -344 -27 -3 -28 -3
-2 -231 -3 -231 -255 -99 -255 -99 -52 17 -53 17 0 202 0 202 120 57 120 58 0
349 0 349 35 14 c63 27 69 101 11 137 -17 10 -37 19 -45 19 -41 0 -68 73 -37
99 8 6 38 16 67 21 30 5 95 27 144 49 l90 41 686 0 687 0 103 -63z m-5041
-1362 c624 -96 1172 -405 1567 -882 705 -853 766 -2069 151 -2985 -93 -139
-206 -273 -339 -404 -395 -386 -891 -622 -1449 -690 -184 -22 -524 -15 -693
15 -579 103 -1051 359 -1446 786 -329 356 -547 813 -628 1317 -25 160 -25 576
0 733 94 575 340 1047 750 1442 413 396 912 622 1522 687 88 9 464 -3 565 -19z
m10452 -277 l143 -257 288 -1 c158 0 287 -2 287 -5 0 -2 -63 -118 -140 -256
-77 -138 -140 -255 -140 -259 0 -4 63 -121 140 -259 77 -138 140 -254 140
-256 0 -3 -129 -5 -287 -5 l-288 0 -149 -270 c-97 -175 -153 -266 -158 -258
-4 7 -74 129 -155 271 l-147 257 -293 0 c-161 0 -293 4 -293 9 0 5 65 122 144
261 l144 251 -148 260 -149 259 298 0 297 0 154 270 c98 173 157 265 162 257
4 -6 72 -128 150 -269z m-5852 72 l0 -40 -300 0 -300 0 0 40 0 40 300 0 300 0
0 -40z m-712 -6 l-3 -37 -180 -64 c-99 -36 -222 -80 -272 -98 l-93 -33 0 38 0
37 263 96 c144 52 268 95 275 96 9 1 12 -10 10 -35z m1105 -85 l277 -122 0
-38 0 -38 -147 65 c-82 36 -210 92 -285 126 l-138 60 0 34 c0 19 3 34 8 34 4
0 132 -55 285 -121z m2892 94 c-16 -42 -76 -292 -95 -395 -88 -487 -76 -939
34 -1369 148 -576 485 -1047 987 -1379 619 -409 1396 -526 2268 -341 79 17
146 30 148 28 4 -4 -46 -64 -145 -175 -281 -312 -706 -571 -1132 -688 -763
-211 -1570 -44 -2186 451 -499 401 -825 999 -894 1643 -18 165 -8 503 20 661
87 497 304 926 648 1283 105 109 324 297 346 298 4 0 5 -8 1 -17z m-3285 -128
l0 -25 -300 0 -300 0 0 25 0 25 300 0 300 0 0 -25z m-710 -8 c0 -21 -23 -31
-262 -117 -145 -51 -269 -96 -275 -98 -8 -3 -13 5 -13 21 0 23 15 30 263 120
144 53 268 96 275 96 6 1 12 -9 12 -22z m1105 -98 c248 -110 275 -124 275
-145 0 -13 -3 -24 -7 -24 -5 1 -132 56 -283 123 -232 103 -275 126 -278 145
-2 12 1 22 7 22 5 0 134 -55 286 -121z m-395 6 l0 -25 -300 0 -300 0 0 25 0
25 300 0 300 0 0 -25z m-710 -18 c0 -20 -24 -31 -262 -116 -145 -52 -269 -96
-275 -99 -8 -2 -13 5 -13 21 0 21 8 28 43 41 178 67 484 175 495 175 6 1 12
-9 12 -22z m1106 -98 c249 -110 274 -123 274 -145 0 -13 -3 -24 -7 -23 -5 0
-132 55 -283 123 -231 102 -276 125 -278 144 -2 12 2 22 8 22 7 0 135 -54 286
-121z m-1106 -1119 l0 -1120 60 0 60 0 0 440 0 440 295 0 295 0 0 -440 0 -440
50 0 50 0 0 1121 c0 1064 1 1121 18 1115 9 -4 137 -54 285 -112 l267 -106 0
-1116 0 -1117 115 -64 115 -64 0 -237 0 -238 -49 -21 c-27 -11 -54 -21 -59
-21 -5 0 -139 60 -298 134 l-289 134 -3 296 -2 296 -35 0 -35 0 0 -290 0 -290
-440 0 -440 0 0 290 0 290 -35 0 -35 0 -2 -296 -3 -296 -255 -119 c-140 -65
-260 -118 -265 -119 -6 0 -47 23 -93 51 l-82 51 0 202 0 202 114 53 113 53 8
661 c4 364 11 873 14 1132 l6 470 270 96 c149 54 273 98 278 98 4 1 7 -503 7
-1119z m710 705 l0 -415 -300 0 -300 0 0 415 0 415 300 0 300 0 0 -415z m-86
-574 c41 -38 51 -84 29 -129 -30 -61 -64 -72 -233 -72 -169 0 -203 11 -233 72
-15 31 -17 44 -8 71 12 34 43 69 71 80 8 3 90 5 182 4 161 -2 167 -3 192 -26z
m-544 -4036 l0 -1855 -325 0 -325 0 0 1733 0 1733 248 121 247 121 78 1 77 1
0 -1855z m630 840 l0 -1015 -270 0 -270 0 0 1015 0 1015 270 0 270 0 0 -1015z
m468 893 l252 -122 0 -1733 0 -1733 -325 0 -325 0 0 1855 0 1855 73 0 c72 0
72 0 325 -122z m-575 -2047 c88 -34 89 -140 1 -177 -35 -15 -271 -20 -333 -8
-93 19 -112 143 -28 179 38 17 321 21 360 6z m107 -956 l0 -585 -25 0 -25 0 0
324 0 324 -58 79 c-73 98 -143 163 -176 163 -31 0 -95 -63 -164 -163 l-52 -75
0 -326 0 -326 -25 0 -25 0 0 585 0 585 275 0 275 0 0 -585z m-832 -967 l2
-278 -324 0 c-311 0 -326 1 -336 19 -6 12 -10 113 -10 259 0 254 0 257 50 275
8 3 150 5 315 4 l300 -2 3 -277z m960 0 l2 -278 -440 0 -440 0 0 273 c0 151 3
277 7 280 3 4 200 6 437 5 l431 -3 3 -277z m731 258 c20 -18 21 -28 21 -255 0
-198 -3 -240 -16 -259 -15 -22 -16 -22 -335 -22 l-319 0 0 280 0 281 314 -3
c292 -3 315 -4 335 -22z m-1609 -1306 l0 -690 -267 2 -268 3 -3 688 -2 687
270 0 270 0 0 -690z m790 0 l0 -690 -352 2 -353 3 -3 688 -2 687 355 0 355 0
0 -690z m700 0 l0 -690 -305 0 -305 0 0 690 0 690 305 0 305 0 0 -690z"/>
<path d="M11750 31815 c-265 -75 -356 -395 -167 -589 60 -60 119 -92 197 -103
216 -33 398 113 408 327 5 90 -6 137 -50 210 -77 128 -244 195 -388 155z m180
-72 c31 -10 71 -34 100 -60 152 -136 117 -379 -68 -470 -117 -57 -251 -29
-341 73 -132 150 -68 390 121 455 67 23 121 24 188 2z"/>
<path d="M11802 31503 c-17 -16 -98 -120 -116 -150 -3 -7 28 4 71 23 81 37 87
37 187 7 15 -4 12 4 -15 42 -70 98 -90 110 -127 78z"/>
<path d="M11119 31667 c-19 -12 -34 -28 -34 -34 0 -7 32 -34 72 -62 83 -59 93
-73 93 -135 0 -100 -81 -131 -164 -62 -25 20 -47 36 -50 36 -12 0 -5 -51 14
-104 52 -138 178 -162 250 -49 38 60 54 131 47 214 -14 171 -125 266 -228 196z"/>
<path d="M12425 31678 c-136 -75 -174 -298 -78 -451 33 -52 77 -77 137 -77 46
0 53 3 97 50 50 51 84 132 77 186 -3 25 -3 25 -66 -25 -47 -38 -72 -51 -96
-51 -68 0 -115 72 -95 145 11 37 58 80 147 135 52 32 53 33 35 53 -37 41 -115
59 -158 35z"/>
<path d="M11789 30731 c-55 -35 -175 -160 -189 -195 -6 -16 -10 -119 -10 -237
l0 -209 270 0 270 0 0 213 0 214 -31 46 c-48 72 -206 197 -249 197 -9 0 -36
-13 -61 -29z"/>
<path d="M11117 30700 c-20 -21 -48 -62 -62 -89 -25 -50 -25 -52 -25 -312 0
-244 1 -261 18 -257 9 3 70 18 135 33 l117 29 0 260 0 260 -26 38 c-28 39 -80
78 -107 78 -8 0 -31 -18 -50 -40z"/>
<path d="M12551 30648 c-18 -18 -34 -42 -37 -53 -2 -11 -3 -128 -2 -259 l3
-240 93 -37 c51 -21 102 -41 113 -44 18 -6 19 1 19 242 0 249 0 249 -26 302
-32 64 -85 121 -111 121 -12 0 -35 -15 -52 -32z"/>
<path d="M11825 27433 c-44 -23 -104 -82 -126 -125 -17 -33 -19 -60 -19 -253
l0 -215 225 0 225 0 0 209 c0 115 -4 221 -10 236 -14 37 -98 124 -142 146 -45
23 -112 24 -153 2z"/>
<path d="M11876 28984 c-13 -12 -16 -39 -16 -130 l0 -115 -35 -46 c-40 -53
-40 -53 -19 -96 33 -64 75 -117 93 -117 35 0 121 113 121 158 0 11 -18 40 -40
65 l-40 45 0 116 c0 104 -2 116 -19 126 -25 13 -27 13 -45 -6z"/>
<path d="M11897 25054 c-4 -4 -7 -83 -7 -176 l0 -168 -34 -47 c-53 -76 -60
-107 -35 -162 25 -57 76 -111 105 -111 25 0 65 43 96 103 27 53 19 94 -29 166
l-38 56 -5 170 c-5 162 -6 170 -25 173 -12 2 -24 0 -28 -4z"/>
<path d="M2650 16010 c0 -18 119 -488 177 -695 152 -550 373 -1213 574 -1722
l61 -153 16668 0 16669 0 51 133 c275 703 500 1402 686 2134 41 161 74 297 74
302 0 8 -5230 11 -17480 11 -11995 0 -17480 -3 -17480 -10z"/>
<path d="M4990 10474 c0 -11 361 -549 485 -724 436 -611 933 -1227 1403 -1737
l94 -103 13158 0 13157 0 126 138 c493 542 970 1135 1392 1732 137 195 465
684 465 694 0 3 -6813 6 -15140 6 -8327 0 -15140 -3 -15140 -6z"/>
<path d="M32179 6823 c-13 -16 -12 -17 4 -4 9 7 17 15 17 17 0 8 -8 3 -21 -13z"/>
<path d="M10555 4936 c108 -74 613 -373 885 -523 2323 -1285 4884 -2034 7535
-2203 732 -46 1643 -44 2380 5 2700 183 5312 969 7655 2305 195 112 510 300
650 389 l65 41 -9595 0 c-8091 0 -9591 -2 -9575 -14z"/>
</g>
</svg>
